# xmcd
#
# Track frame offsets: 
#        150
#        20800
#        36343
#        51455
#        75689
#        92562
#        115657
#        139508
#
# Disc length: 2097 seconds
#
# Revision: 0
# Processed by: cddbd v1.5.2PL0 Copyright (c) Steve Scherf et al.
# Submitted via: ExactAudioCopy v0.99pb5
#
DISCID=65082f08
DTITLE=ALVON - For Sentimental Reasons
DYEAR=2009
DGENRE=Blues
TTITLE0=I Love Your Sentimental Reasons
TTITLE1=Fly Me To The Moon
TTITLE2=Every Day I Have The Blues
TTITLE3=The Nearness of You
TTITLE4=All of Me
TTITLE5=Don't Get Around Much Anymore
TTITLE6=Night and Day
TTITLE7=What A Wonderful World
EXTD=
EXTT0=
EXTT1=
EXTT2=
EXTT3=
EXTT4=
EXTT5=
EXTT6=
EXTT7=
PLAYORDER=
